<?xml version="1.0" encoding="UTF-8"?>
<svg xmlns="http://www.w3.org/2000/svg" id="Layer_1" data-name="Layer 1" viewBox="0 0 24 24">
  <path d="m5,10.5c0-.276.224-.5.5-.5h4.5v-4.5c0-.276.224-.5.5-.5s.5.224.5.5v4.5h4.5c.276,0,.5.224.5.5s-.224.5-.5.5h-4.5v4.5c0,.276-.224.5-.5.5s-.5-.224-.5-.5v-4.5h-4.5c-.276,0-.5-.224-.5-.5Zm19-2v11c0,2.481-2.019,4.5-4.5,4.5h-11c-1.928,0-3.611-1.23-4.236-3.024-2.37-.125-4.264-2.075-4.264-4.476V4.5C0,2.019,2.019,0,4.5,0h12c2.401,0,4.351,1.894,4.476,4.264,1.793.625,3.024,2.307,3.024,4.236ZM4.5,20h12c1.93,0,3.5-1.57,3.5-3.5V4.5c0-1.93-1.57-3.5-3.5-3.5H4.5c-1.93,0-3.5,1.57-3.5,3.5v12c0,1.93,1.57,3.5,3.5,3.5Zm18.5-11.5c0-1.371-.798-2.588-2-3.158v11.158c0,2.481-2.019,4.5-4.5,4.5H5.342c.57,1.202,1.787,2,3.158,2h11c1.93,0,3.5-1.57,3.5-3.5v-11Z"/>
</svg>
